# xmcd
#
# Track frame offsets: 
#        150
#        17483
#        32483
#        56290
#        74483
#        100374
#        124209
#        139622
#        161941
#
# Disc length: 2466 seconds
#
# Revision: 0
# Processed by: cddbd v1.5.2PL0 Copyright (c) Steve Scherf et al.
# Submitted via: ExactAudioCopy v0.99pb4
#
DISCID=7709a009
DTITLE=Dave Broida and Blues Farm - Deep Blue Sea
DYEAR=2007
DGENRE=Blues
TTITLE0=Born in New York
TTITLE1=Sell  My Monkey
TTITLE2=Down on the Bottom
TTITLE3=Big Legged Woman
TTITLE4=Drowning On Dry Land
TTITLE5=Goin' Fishin'
TTITLE6=Blues Farm Boogie
TTITLE7=Honky Tonk Nite Time Man
TTITLE8=Kidney Stew
EXTD=
EXTT0=
EXTT1=
EXTT2=
EXTT3=
EXTT4=
EXTT5=
EXTT6=
EXTT7=
EXTT8=
PLAYORDER=
